# xmcd
#
# Track frame offsets:
#	150
#	18098
#	37080
#	53361
#	67017
#	82805
#	103474
#	117290
#	139160
#	164382
#
# Disc length: 2714 seconds
#
# Revision: 1
# Processed by: cddbd v1.5.2PL0 Copyright (c) Steve Scherf et al.
# Submitted via: audiograbber 1.83.01
#
DISCID=800a980a
DTITLE=Various Artists  - King Mojo all Stars Vol. 1 
DYEAR=2004
DGENRE=Blues
TTITLE0=Grinderswitch - Dixie Flyer
TTITLE1=Grinderswitch - Close Enough To Love
TTITLE2=Mike Lowry Band - No One You'd Know
TTITLE3=Mike Lowry Band - Trying To Get Over You
TTITLE4=Diane Durrett - From The Heart of A Soul
TTITLE5=Diane Durrett - Stone Cold In Love
TTITLE6=True Believers - Dinner Bell
TTITLE7=True Believers - Lonely
TTITLE8=Big Shanty and The Polk Street Blues Band - The Queen of Hearts Has Dis
TTITLE8=appeared
TTITLE9=Big Shanty and The Polk Street Blues Band - Smoke'n Mirrors Jam
EXTD=Copyright 2004 Dick Wooley Associates
EXTT0=
EXTT1=
EXTT2=
EXTT3=
EXTT4=
EXTT5=
EXTT6=
EXTT7=
EXTT8=
EXTT9=
PLAYORDER=
